<svg width="204" height="1090" viewBox="0 0 204 1090" fill="none" xmlns="http://www.w3.org/2000/svg">
<path d="M-157.059 350.432C-154.184 352.36 -155.816 351.026 -154.963 354.392C-153.942 358.439 -153.314 362.199 -152.754 366.356C-152.379 369.15 -150.989 369.702 -150.313 372.143C-149.794 374.02 -150.76 376.315 -150.484 378.234C-150.054 381.173 -149.016 384.829 -147.719 387.646C-144.95 393.69 -134.927 401.664 -127.792 401.98C-122.34 402.216 -119.633 399.903 -114.188 399.966C-109.665 400.022 -105.142 399.897 -100.618 399.954C-95.8424 400.011 -93.6985 398.441 -89.3391 397.933C-84.9967 397.435 -80.0911 397.981 -75.6975 397.981C-70.57 397.981 -64.7938 397.298 -59.8438 398.423C-55.0781 399.506 -51.456 400.246 -46.2568 400.002C-38.207 399.629 -31.4442 396.504 -25.255 392.583C-13.9826 385.435 -6.06938 373.599 7.58928 369.773C11.4742 368.69 15.0792 366.735 19.3635 366.258C21.5586 366.016 23.3595 365.451 25.5 364.997C27.5551 364.561 28.5706 364.655 30.6223 364.219C34.7632 363.351 37.7737 363.142 42 362.351C43.5294 362.068 46.6467 362.551 48.8043 362.303C50.9413 362.059 53.4778 362.351 55.6489 362.351C65.7777 362.351 74.203 364.309 82.7581 368.785C90.4425 372.802 93.5013 377.971 103.207 378.18C118.938 378.511 133.812 369.925 142.268 358.445C145.316 354.308 148.252 351.572 153.089 348.996C157.251 346.776 159.193 347.218 163.836 346.063C167.004 345.272 170.302 342.404 173.402 341.013C177.249 339.291 180.734 339.303 184.787 338.202C190.553 336.632 191.768 330.825 194.342 326.67C196.428 323.301 198.995 320.636 200.064 316.813C201.122 313.029 200.156 309.143 201.077 305.38C201.385 304.118 202.576 302.814 202.88 301.035C203.221 299.053 202.771 297.337 202.334 295.484C201.979 293.989 200.743 290.999 200.128 289.098C199.534 287.25 197.718 284.735 196.612 283.063C194.68 280.13 193.543 277.724 192.075 274.758C190.361 271.317 189.788 268.986 188.754 265.342C187.784 261.919 186.053 258.019 185.217 255.011C181.328 241.014 174.627 230.53 159.811 223.777C151.717 220.088 145.139 216.501 135.068 218.769C133.579 219.252 132.074 219.667 130.425 219.864C117.217 221.437 94.9385 211.72 88.4625 201.579C82.8058 192.725 84.8541 191.801 88.4625 182.982C88.6298 182.571 89.9667 180.288 88.854 175.636C87.5021 174.651 86.5986 172.706 85.134 171.813C76.8965 166.791 68.1913 162.049 63.0125 154.534C58.9398 148.622 57.3456 141.743 53.9967 136.127C50.9959 131.092 45.4758 125.556 39.2763 123.303C29.622 119.79 22.2619 120.829 12.611 122.864C3.6873 124.75 -3.39294 128.051 -11.7397 131.217C-19.373 134.106 -27.2794 132.28 -34.9502 130.343C-39.6715 129.152 -44.6523 126.01 -49.0356 125.234C-53.2654 124.485 -57.7238 124.822 -62.1208 124.795C-64.1213 124.783 -67.1084 124.288 -69.0303 124.694C-71.0855 125.126 -71.2766 126.442 -73.3249 126.875C-77.2132 127.696 -82.9758 126.83 -87.0211 126.78C-95.3543 126.678 -103.797 131.34 -109.737 136.616C-111.638 138.305 -112.372 139.368 -114.195 140.678C-115.383 141.531 -116.8 141.994 -118.104 143.059C-121.545 145.864 -123.979 150.156 -127.738 152.657C-135.822 158.044 -148.576 152.875 -157.23 152.463C-165.546 152.063 -173.213 152.803 -181 154.274V338.787C-175.651 342.24 -169.943 345.973 -164.132 348.486C-162.282 349.289 -158.643 349.369 -157.059 350.432Z" fill="#231F20"/>
<path d="M15.8227 421.655C5.81149 421.769 -2.64564 410.212 -12.6497 415.37C-18.2508 418.256 -23.7876 422.864 -27.2051 430.914C-28.5195 434.007 -29.4745 437.4 -30.7371 440.595C-32.2197 444.351 -32.4235 446.413 -33.0763 450.718C-33.7916 455.455 -33.9526 459.2 -33.9991 464.278C-34.0366 468.607 -32.9278 471.729 -32.7884 475.902C-32.6435 480.339 -34.3549 495.926 -29.2581 495.281L-28.947 494.264C-28.6394 500.395 -19.6726 511.91 -18.2866 514.174C-13.517 521.972 -15.5236 533.178 -12.9358 542.252C-12.0095 545.503 -11.5624 546.476 -9.35196 548.108C-8.20563 548.955 -6.42264 550.585 -5.26736 551.035C-2.07873 552.279 0.948956 553.932 3.89795 555.392C7.15276 556.999 10.9226 558.041 14.3706 556.841C15.1699 556.56 15.8513 555.535 16.9798 555.29C17.7792 555.348 18.5786 555.357 19.3797 555.337C20.9606 555.354 22.5433 555.354 24.126 555.337C26.5028 555.313 27.8619 555.903 30.0562 556.844C32.0484 557.694 33.9942 556.855 35.9864 557.705C39.4451 559.18 42.8984 558.488 46.3982 559.645C47.6948 560.071 49.9713 561.628 51.436 562.609C52.72 563.473 53.7126 564.233 54.934 565.086C57.4592 566.844 61.5295 568.681 64.457 568.944C66.417 569.116 68.4182 568.847 70.3836 568.894C72.2077 568.935 72.8551 567.948 74.2125 567.39C77.5639 566.003 80.9903 565.515 83.7587 561.628C87.2496 556.73 92.6343 549.355 92.983 541.826C93.1744 537.664 91.3145 534.11 90.2594 530.637C89.8677 529.358 89.4475 528.187 89.0755 526.756C88.7661 525.564 88.505 523.441 88.2153 522.346C86.4913 515.844 86.9956 508.552 86.9956 501.095C86.9956 487.395 89.4028 466.773 82.0169 457.021C74.7311 447.395 67.5044 439.862 62.9441 425.966C61.145 420.484 60.1328 414.003 56.4434 411.495C52.3337 408.702 47.4193 410.315 43.1005 412.35C38.5741 414.485 34.7131 421.343 30.0526 421.705C25.3385 422.073 20.5493 421.603 15.8227 421.655Z" fill="#231F20"/>
<path d="M101.526 900.709C104.197 898.638 109.064 899.228 111.969 897.908C114.541 896.747 117.294 893.526 119.502 891.289C123.917 886.817 129.575 878.069 131.103 871.083C132.895 862.886 131.504 851.632 131.504 843C131.504 837.092 130.993 831.728 132.806 826.299C134.141 822.315 135.51 815.872 137.256 812.46C140.573 805.989 144.402 799.423 147.964 793.042C152.263 785.337 157.622 779.081 161.399 770.923C164.429 764.379 169.309 758.907 170.369 751.835C172.989 734.329 169.161 717.301 159.61 705.256C156.756 701.65 153.293 699.126 149.747 696.865C146.906 695.045 143.487 694.643 140.334 692.741C134.434 689.181 128.33 685.284 122.481 681.476C111.192 674.124 105.359 657.844 102.559 642.646C101.491 636.847 101.103 632.202 101.16 625.949C101.205 620.506 103.5 618.833 107 614.737C112.5 610.091 115 608.618 126 601.462C132.5 596.654 143.239 590.623 137 584.852C130.5 582.23 122.5 589.223 88.4997 589.223C79.8172 589.223 80.9997 577.859 54.4997 576.548C43.4997 576.548 34.4997 590.098 22.6873 580.568C17.4196 577.458 12.5339 577.81 7.91727 571.684C2.70605 564.781 3.00198 556.644 3.00468 547.239C3.00468 543.014 2.23524 537.409 3.36787 533.461C4.00011 531.257 5.15965 529.661 6.50751 528.291C6.60975 522.603 7.41538 522.884 9 517.264C8.9166 517.203 9.5 514.493 9.5 510.708C7.26364 503.128 3.13919 504.13 -0.557358 499.488C-3.83421 495.372 -7.46619 493.006 -10.9206 489.414C-13.5814 486.642 -14.7328 483.69 -18.4159 482.734C-26.4332 480.648 -33.264 484.179 -39.4249 490.669C-44.698 496.224 -48.5372 503.328 -50.9746 511.414C-52.2848 515.768 -53.5627 521.154 -54.195 525.781C-54.9537 531.322 -52.8928 535.043 -52.231 540.087C-51.5234 545.455 -52.8982 551.413 -52.3628 556.842C-51.9109 561.43 -50.4877 563.691 -50.5415 568.714C-50.6356 577.526 -51.6122 587.23 -49.0241 595.457C-48.0206 598.639 -46.9364 601.019 -46.7642 604.632C-46.6754 606.588 -47.0575 615.749 -49.2393 616.123C-49.9604 616.249 -50.4204 615.868 -50.6222 614.965C-50.4661 619.797 -50.5495 622.541 -51.8813 626.539C-53.1296 630.282 -53.3233 633.751 -54.4532 637.354C-55.0236 639.187 -56.7696 640.338 -57.3239 642.589C-57.8834 644.854 -57.6467 647.004 -58.0637 649.276C-58.3973 651.07 -59.2555 652.048 -59.5004 654.515C-59.721 656.758 -59.4708 659.455 -59.4573 661.727C-59.3981 671.571 -60.7164 679.542 -65.2523 687.495C-66.7939 690.206 -69.5058 691.619 -70.2564 694.992C-70.6815 696.915 -70.2429 699.676 -70.5631 701.74C-70.8025 703.3 -71.7738 704.76 -71.9917 706.989C-72.971 716.934 -71.5047 726.289 -69.7748 735.141C-69.4116 737 -68.5911 737.849 -68.3382 740.376C-68.1176 742.623 -68.3785 745.305 -68.3812 747.589C-68.3893 752.356 -68.3947 757.131 -68.3812 761.895C-68.3651 767.428 -67.9965 771.584 -70.1676 776.197C-71.6904 779.426 -73.501 782.385 -75.0694 785.822C-77.7759 791.751 -79.1803 804.022 -76.0003 810.242C-72.4652 817.159 -66.7509 824.343 -61.728 829.341C-56.7508 834.288 -50.8051 835.539 -45.1769 838.886C-38.6366 842.769 -32.2982 844.139 -25.992 848.353C-21.682 851.24 -15.505 854.019 -11.6658 857.834C-7.01421 862.454 -1.84603 866.78 2.56077 872.201C7.7397 878.58 8.32621 883.879 8.36118 893.08C8.3854 899.239 6.77117 903.927 6.53442 909.773C6.45641 911.743 12.6738 920.105 34.1738 921.854C55.6738 923.602 47.6738 931.033 60.6738 925.788C73.6738 920.542 87.6738 920.105 87.6738 920.105C93.1738 919.231 92.7765 912.139 94.3745 909.834C96.2201 907.181 99.1096 902.575 101.526 900.709Z" fill="#231F20"/>
<path d="M-47.0709 76.8196C-40.1944 77.5238 -33.1076 75.1275 -26.5025 78.0325C-24.6782 78.8336 -23.6029 79.8873 -21.9752 80.934C-21.295 81.3718 -20.0526 81.6105 -19.2958 82.0189C-18.2873 82.5674 -18.3974 83.1868 -17.1118 83.5397C-11.3873 85.116 -5.88298 82.3026 -1.43826 79.7575C2.23586 77.6536 5.61314 75.0254 10.05 75.7105C11.3868 75.9182 12.3834 76.6154 14.2529 76.5947C15.5543 76.5774 16.8577 76.6172 18.1551 76.6016C20.7795 76.5705 22.3698 78.0411 24.717 77.8318C26.0833 77.7107 28.6663 76.0877 29.891 75.4475C31.8156 74.4423 32.484 73.5097 33.4846 71.7224C35.2145 68.6271 38.9319 64.1095 37.7858 60.4726C36.5965 56.6973 31.7429 54.2282 31.1708 50.2297C30.8641 48.0739 30.5771 44.2051 31.1334 42.1098C31.5502 40.5388 32.9341 38.8017 33.4885 37.3224C35.01 33.2806 36.5591 27.9827 33.52 24.0343C30.9211 20.657 26.3939 19.5687 24.3238 16.0858C22.3403 12.7482 22.8652 8.55068 21.0842 5.15947C19.5626 2.25791 17.471 2.16967 14.1822 0.854707C11.1922 -0.339138 11.0093 -0.143624 7.7264 0.595175C5.19639 1.16788 3.59818 1.09348 1.28048 2.00357C-1.1709 2.96729 -2.22852 3.8151 -4.29853 5.18715C-9.25633 8.47455 -13.243 4.55909 -18.3522 5.3844C-19.7971 5.61798 -20.8134 6.43118 -22.2642 6.65091C-23.5085 6.83778 -25.0321 6.22009 -26.241 6.53672C-27.9159 6.97792 -29.176 8.66488 -30.4125 9.75145C-33.607 12.5613 -36.2687 15.6134 -37.9495 19.1846C-39.3904 22.2436 -40.4205 25.8441 -42.7736 28.7128C-44.2833 30.5572 -46.6109 30.533 -48.3762 31.8151C-49.9646 32.9691 -50.6939 34.4035 -50.9868 36.4053C-52.011 43.4196 -51.4193 48.2815 -57.5035 53.5708C-61.5236 57.0641 -65.0464 61.7391 -61.6101 66.5456C-59.0368 70.1427 -51.836 76.3334 -47.0709 76.8196Z" fill="#231F20"/>
<path d="M108.568 470.101C113.13 470.679 117.831 468.711 122.213 471.097C123.423 471.755 124.136 472.621 125.216 473.481C125.667 473.84 125.999 474.162 126.501 474.497C127.17 474.948 130.256 475.365 131.501 475.497C133.681 475.727 136.553 474.088 139.501 471.997C141.938 470.269 143.058 470.369 146.001 470.932C146.888 471.103 148.008 469.933 149.248 469.916C150.112 469.902 150.976 469.935 151.837 469.922C153.578 469.896 154.501 469.916 156.001 469.997C157.501 469.997 158.81 469.5 159.622 468.974C160.899 468.148 161.342 467.382 162.006 465.914C163.153 463.371 164.001 460.321 164.001 456.997C164.001 453.673 163.881 450.782 163.501 447.497C163.298 445.726 162.632 443.218 163.001 441.497C163.277 440.207 162.633 438.712 163.001 437.497C164.01 434.177 164.045 429.985 162.029 426.742C160.305 423.967 157.302 423.073 155.929 420.212C154.613 417.471 154.961 414.023 153.78 411.237C152.771 408.854 151.383 408.781 149.201 407.701C147.218 406.72 147.097 406.881 144.919 407.488C143.24 407.958 142.18 407.897 140.643 408.645C139.017 409.436 137.001 409.293 134.001 409.997C131.871 410.497 131.008 410.744 127.619 411.422C126.661 411.614 125.963 411.241 125.001 411.422C124.176 411.575 123.188 412.108 122.386 412.368C121.275 412.731 120.439 414.117 119.619 415.009C117.5 417.317 115.734 419.824 114.619 422.758C113.663 425.271 112.562 427.141 111.001 429.497C110 431.012 108.873 432.08 107.702 433.133C106.649 434.081 106.165 435.259 105.97 436.903C105.291 442.665 105.684 446.659 101.647 451.004C98.9807 453.873 96.6438 457.713 98.9233 461.661C100.63 464.616 105.407 469.701 108.568 470.101Z" fill="#231F20"/>
<path d="M83.1358 666.234C87.1131 668.359 93.0036 671.952 98.3621 669.573C103.964 667.09 106.749 659.546 110.142 654.523C113.232 649.943 116.936 646.762 120.924 643.285C126.861 638.11 136.705 635.259 143.186 635.239C146.903 635.235 149.65 638.288 153.078 639.102C156.286 639.862 162.31 637.066 165.41 634.593C171.955 629.38 182.275 618.774 183.309 610.454C184.306 602.411 183.157 594.239 184.5 586.289C185.189 582.263 186.557 576.931 188.616 572.979C189.825 570.652 192.323 568.797 193.398 566.426C194.414 564.19 193.416 563.237 194.425 560.995C195.463 558.667 197.932 556.616 199.193 554.359C200.744 551.586 200.34 551.02 201.22 548.646C203.313 542.972 204.012 539.65 203.795 534.183C203.494 526.486 198.736 520.298 192.468 517.381C188.859 515.7 186.073 516.358 182.582 513.853C178.728 511.087 174.765 508.461 170.862 505.765C163.933 500.976 157.582 495.993 149.593 493.592C145.738 492.434 144.224 490.496 139.491 492.897C136.463 494.43 131.084 497.487 128.5 499.848C121.945 505.849 116.211 516.052 114.303 524.06C113.678 526.67 111.372 532.765 111.441 535.094C111.606 540.739 115.738 545.397 119.512 547.854C123.478 550.433 127.641 551.511 124.97 558.032C123.36 561.959 120.75 569.229 117.468 572.467C114.596 575.302 109.816 577.939 106.433 580.109C102.95 582.336 99.1591 585.389 95.5279 587.119C91.7681 588.911 87.7714 589.147 84.4456 592.238C80.3753 596.023 77.0357 602.039 73.8295 606.786C67.3983 616.299 53.5917 616.216 48.8385 628.477C46.6324 634.174 49.5619 636.174 51.248 639.59C52.3774 641.896 53.4179 643.175 54.6667 645.276C55.6468 646.918 56.8696 649.488 58.0066 650.995C61.2253 655.226 67.8135 654.155 71.9168 657.166C75.8357 660.045 78.7853 663.91 83.1358 666.234Z" fill="#231F20"/>
<path d="M135.086 652.478C133.867 654.285 131.328 656.719 131.916 659.745L131.362 666.615C131.147 667.565 132.834 668.947 134.52 670.328C136.905 672.281 136.943 672.874 139.796 673.519C141.697 673.949 143.076 672.594 144.774 671.636C146.472 670.678 154.113 666.367 153.526 663.341C152.938 660.315 150.173 657.398 149.694 656.549C149.311 655.87 145.035 653.581 142.945 652.522C139.332 650.083 138.483 650.562 135.086 652.478Z" fill="black"/>
<path d="M24.6829 993.773C24.6665 994.746 25.6448 995.145 26.4517 995.964L27.43 996.362C27.6473 996.45 28.2435 996.791 28.8891 997.446C29.6961 998.265 29.5412 997.712 30.1934 997.977C30.8455 998.243 31.3428 997.955 31.6853 997.114C32.0278 996.273 33.5689 992.488 32.762 991.669C31.955 990.85 30.4795 990.74 30.1534 990.607C29.8925 990.501 28.0664 991.065 27.1859 991.36C25.5393 991.669 25.3681 992.09 24.6829 993.773Z" fill="black"/>
<path d="M53.048 1024.8C55.4446 1025.39 56.975 1023.19 59.4486 1021.65L60.9789 1019.46C61.319 1018.97 62.4939 1017.69 64.4728 1016.46C66.9464 1014.93 65.493 1015 66.5132 1013.54C67.5335 1012.07 67.1003 1010.68 65.2139 1009.37C63.3274 1008.05 54.8382 1002.13 52.3646 1003.67C49.891 1005.2 48.7937 1008.79 48.2836 1009.52C47.8755 1010.1 48.2484 1014.93 48.4858 1017.27C48.331 1021.51 49.2742 1022.17 53.048 1024.8Z" fill="black"/>
<path d="M32.6419 939.785C29.9481 939.012 27.3447 941.803 23.8284 943.743L21.225 946.535C20.6465 947.155 18.7862 948.783 15.9731 950.335C12.4567 952.275 14.2375 952.196 12.5019 954.057C10.7664 955.918 10.8116 957.7 12.6377 959.403C14.4638 961.106 22.6812 968.77 26.1975 966.83C29.7139 964.89 32.272 960.317 33.1398 959.387C33.834 958.642 35.0439 952.464 35.5621 949.467C37.2079 944.043 36.2949 943.192 32.6419 939.785Z" fill="black"/>
<path d="M-56.0442 1035.15C-44.9384 1033.51 -38.3353 1017.55 -27.2799 1003.42L-20.6768 987.458C-19.2094 983.911 -14.0636 973.991 -5.21927 962.693C5.83619 948.57 -0.817202 952.05 3.58486 941.407C7.98691 930.764 5.73557 923.601 -3.16917 919.918C-12.0739 916.234 -52.1453 899.66 -63.2007 913.783C-74.2562 927.906 -78.6079 951.034 -80.809 956.355C-82.5698 960.612 -79.9411 987.873 -78.4067 1000.97C-78.3099 1025.94 -73.8575 1027.78 -56.0442 1035.15Z" fill="black"/>
<path d="M13.393 1068.27C18.5129 1065.13 21.865 1063.81 23.44 1056.97L34.7272 1049.71C39.9679 1047.94 40.8529 1039.39 35.0441 1030.36C31.2497 1024.46 26.9781 1022.78 24.7999 1019.39C22.4815 1015.79 12.9959 1020.38 7.48199 1021.41C1.96809 1022.45 -22.8445 1027.09 -24.4194 1033.92C-25.9944 1040.76 -21.6615 1048.66 -21.2675 1050.77C-20.9523 1052.46 -11.9456 1059.93 -7.48168 1063.45C-0.394182 1070.84 2.36276 1070.33 13.393 1068.27Z" fill="black"/>
<path d="M191.129 483.439C191.031 481.246 189.009 480.663 187.275 479.08L185.253 478.496C184.804 478.367 183.558 477.791 182.171 476.525C180.438 474.942 180.823 476.136 179.475 475.747C178.127 475.358 177.165 476.162 176.588 478.161C176.011 480.16 173.416 489.153 175.15 490.736C176.883 492.319 179.868 492.098 180.542 492.292C181.081 492.448 184.681 490.6 186.414 489.657C189.686 488.437 189.975 487.438 191.129 483.439Z" fill="black"/>
<path d="M49.7697 100.339C49.7182 103.395 50.2581 104.987 52.7908 107.557L55.861 108.808C56.5432 109.085 58.4142 110.155 60.4404 112.211C62.9731 114.781 64.4108 112.21 66.9957 110.181C68.7341 108.817 68.3816 107.9 69.4564 105.26C70.5313 102.621 71.9913 97.9875 69.4586 95.4175C66.926 92.8475 65.4318 91.1629 64.4084 90.7462C63.5897 90.4128 59.9192 94.4911 57.1559 95.4175C51.988 96.3893 51.9199 95.0581 49.7697 100.339Z" fill="black"/>
<path d="M98.7685 197.543C99.3708 198.072 99.9333 198.637 100.789 198.581L101.454 198.196C101.602 198.11 101.817 197.588 102.501 197.543C103.357 197.486 103.197 197.626 103.64 197.369C104.083 197.113 104.115 196.656 103.734 195.998C103.354 195.341 103.357 193.753 102.501 193.809C101.646 193.865 99.4624 193.086 98.7677 193.809C98.3358 194.259 98.4108 194.983 98.221 195.678C97.7143 196.849 98.0073 196.227 98.7685 197.543Z" fill="black"/>
<path d="M117.389 190.103C117.337 193.159 120.407 194.409 122.94 196.979L126.01 198.229C126.692 198.507 128.563 199.577 130.589 201.633C133.122 204.203 132.636 202.466 134.683 203.3C136.73 204.133 138.291 203.23 139.365 200.59C140.44 197.95 145.277 186.072 142.745 183.502C140.212 180.932 135.581 180.585 134.558 180.168C133.739 179.835 128.007 181.604 125.244 182.53C120.076 183.502 119.539 184.822 117.389 190.103Z" fill="black"/>
</svg>
