<svg width="226" height="1082" viewBox="0 0 226 1082" fill="none" xmlns="http://www.w3.org/2000/svg">
<path d="M31.8271 253.044C28.4576 247.05 18.7043 245.974 18.3268 238.259C18.1141 233.94 18.9449 229.07 22.5425 224.284C23.9244 222.444 25.6081 220.715 27.0684 218.871C28.7856 216.704 29.9378 215.877 32.2653 214.016C34.8275 211.97 36.9915 210.593 39.9859 208.828C42.5385 207.325 44.7697 206.916 47.2913 205.571C49.9705 204.14 56.9476 201.017 58.3516 201.396L59.4934 201.575C63.827 200.615 73.1367 201.054 74.9541 201.104C81.2135 201.273 87.1668 196.246 93.4337 194.681C95.6785 194.12 96.4084 194.053 98.135 194.809C99.0305 195.201 100.609 195.704 101.272 196.237C103.104 197.708 105.123 198.944 107.001 200.198C109.071 201.585 110.983 203.47 111.455 205.932C111.563 206.503 111.19 207.259 111.432 208.014C111.741 208.47 112.021 208.942 112.283 209.426C112.837 210.36 113.38 211.301 113.913 212.249C114.715 213.67 115.531 214.277 116.842 215.261C118.03 216.155 118.201 217.599 119.389 218.493C121.45 220.046 122.226 222.337 124.113 224.023C124.811 224.648 126.515 225.469 127.599 226.005C128.553 226.473 129.343 226.803 130.268 227.238C132.177 228.139 134.663 229.931 135.824 231.583C136.599 232.69 137.127 233.972 137.83 235.125C138.48 236.196 138.117 236.919 138.253 237.917C138.581 240.385 139.468 242.59 138.115 245.566C136.41 249.318 133.888 255.044 129.545 257.827C127.144 259.365 124.398 259.475 121.978 260.035C121.085 260.24 120.247 260.39 119.271 260.659C118.458 260.882 117.11 261.454 116.362 261.656C111.916 262.855 107.767 265.65 103.347 268.2C95.2269 272.888 83.8301 281.374 75.5144 280.318C67.3074 279.277 60.3619 277.556 50.5597 279.597C46.6928 280.402 42.5041 282.018 39.7504 280.681C36.6846 279.192 35.953 275.718 35.6768 272.452C35.3883 269.03 38.1273 264.387 36.7419 261.491C35.3416 258.561 33.4187 255.873 31.8271 253.044Z" fill="#231F20"/>
<path d="M270.274 246.615C272.426 249.465 277.33 249.764 279.881 251.816C282.14 253.626 284.112 257.782 285.772 260.725C289.091 266.612 292.664 277.538 292.586 285.673C292.493 295.22 288.59 307.566 286.642 317.247C285.309 323.871 283.598 329.786 284.151 336.232C284.56 340.963 284.449 348.458 285.39 352.629C287.182 360.541 289.454 368.659 291.506 376.518C293.982 386.007 297.825 394.08 299.687 403.973C301.18 411.909 304.73 419.008 304.173 427.148C302.792 447.297 295.197 465.638 283.116 477.261C279.504 480.742 275.54 482.89 271.554 484.726C268.358 486.206 264.915 485.983 261.395 487.494C254.807 490.322 247.943 493.489 241.35 496.605C228.624 502.624 219.233 519.73 213.058 536.221C210.703 542.514 209.275 547.647 207.919 554.67C206.736 560.783 218.441 561.578 215.101 566.326C210.746 572.519 223.135 574.558 226.746 587.03C232.033 593.704 241.201 602.586 233.782 607.827C226.818 609.486 220.553 600.065 187.221 593.358C178.709 591.646 177.304 604.623 151.029 600.867C140.245 598.697 134.479 581.726 120.749 590.083C114.883 592.532 110.173 591.173 104.264 597.133C97.5981 603.846 96.0523 613.029 93.9327 623.577C92.9795 628.315 90.9604 634.449 91.18 639.1C91.3025 641.696 92.0791 643.715 93.0914 645.517C91.9082 651.916 93.029 658.932 93.3145 665.546C93.3145 665.774 92.9109 666.49 92.8145 666.546C87.738 669.313 84.3376 671.948 79.6664 676.424C75.525 680.394 71.4306 682.331 67.2336 685.678C63.9996 688.261 62.2047 691.345 58.3782 691.691C50.0479 692.448 44.148 687.141 39.5724 678.648C35.6563 671.378 33.4956 662.654 32.9306 653.105C32.6285 647.964 32.591 641.672 33.0153 636.358C33.5216 629.995 36.3816 626.228 38.1686 620.702C40.0735 614.822 40.07 607.869 41.8198 601.887C43.2981 596.831 45.2036 594.576 46.2842 588.932C48.1803 579.031 49.4124 567.956 53.8059 559.241C55.5076 555.871 55.8304 553.564 56.8145 549.546C57.3428 547.37 56.4774 545.046 56.8145 543.046C57.1516 541.046 56.9773 539.044 57.3145 536.546C57.937 532.546 58.4216 528.567 58.0181 523.821C57.6389 519.378 58.2318 515.448 57.937 511.185C57.7198 508.046 56.85 506.18 56.8145 503.546C56.777 500.896 56.9837 499.734 57.0876 497.103C57.1653 495.025 56.5446 493.759 56.8611 490.945C57.1511 488.386 58.0048 485.411 58.5307 482.865C60.81 471.837 61.3161 462.638 58.6638 452.825C57.7642 449.481 55.4244 447.361 55.4495 443.431C55.4668 441.19 56.5198 438.18 56.6716 435.802C56.7889 434.005 56.1662 432.177 56.4555 429.634C57.7394 418.288 61.2877 408.086 64.9809 398.501C65.7564 396.488 66.7523 395.698 67.5705 392.913C68.2939 390.437 68.6432 387.377 69.1557 384.817C70.2235 379.469 71.2956 374.113 72.3837 368.773C73.6481 362.571 74.9472 357.983 73.8596 352.382C73.0953 348.46 71.9879 344.785 71.2258 340.621C69.9102 333.438 71.3023 319.4 75.8233 313.052C80.8498 305.992 88.0727 299.063 94.1246 294.449C100.12 289.883 106.231 289.652 112.504 287.009C119.792 283.944 126.315 283.658 133.448 280.177C138.325 277.789 145.008 275.891 149.632 272.37C155.235 268.107 161.278 264.275 166.821 259.064C173.338 252.933 174.314 248.446 180.314 243.046C185.314 238.546 197.314 233.621 200.814 230.546C205.814 224.621 210.842 221.766 232.314 224.046C253.787 226.326 224.323 201.987 235.884 210.434C247.445 218.88 261.071 222.132 261.071 222.132C266.266 224.197 264.276 232.072 265.323 234.972C266.533 238.311 268.327 244.046 270.274 246.615Z" fill="#231F20"/>
<path d="M167.178 1032.42C155.597 1027.13 146.576 1016.72 133.372 1015.19C129.726 1014.76 127.034 1015.44 123.471 1015.59C121.982 1015.65 119.786 1014.87 118.202 1014.82C116.088 1014.75 115.685 1015.84 113.313 1015.2C102.748 1012.38 96.6298 1002.78 91.9447 994.583C88.0719 987.812 85.1601 980.482 77.4722 977.44C75.1548 976.525 72.9207 976.706 69.9702 974.932C67.919 973.692 65.8114 972.541 63.7648 971.307C59.6249 968.813 55.7257 969.672 52.1924 967.153C50.1351 965.687 47.5465 960.697 46.1985 958.538C44.0795 955.145 43.8882 953.038 43.967 949.261C44.1081 942.722 42.4196 932.068 47.635 927.347C53.0483 922.445 63.0633 923.037 67.7044 917.205C70.2039 914.059 74.271 908.169 75.343 904.315C76.1474 901.426 75.5704 897.372 76.0706 894.501C77.4262 886.65 79.9105 876.774 88.424 873.321C95.7049 870.366 103.913 872.851 110.452 869.236C116.719 865.771 119.803 858.601 125.798 854.862C130.923 851.661 134.328 853.469 140.78 854.439C146.644 855.325 146.752 855.806 151.278 860.04C154.762 863.309 157.371 864.679 160.203 868.287C163.198 872.105 164.087 874.439 166.094 878.552C170.902 888.403 180.89 885.884 188.236 891.958C190.313 893.676 191.168 895.917 193.268 897.618C195.07 899.075 198.067 899.511 199.692 901.141C201.941 903.404 202.368 907.263 203.318 910.144C205.77 917.592 207.149 924.93 206.486 932.18C205.92 938.392 204.195 945.083 205.256 951.841C205.932 956.183 209.653 958.313 211.26 961.998C212.706 965.315 212.526 968.277 211.123 971.736C206.202 983.855 200.724 991.043 205.452 1005.13C208.578 1014.44 209.81 1025.16 199.865 1029.61C192.42 1032.94 175.202 1036.08 167.178 1032.42Z" fill="#231F20"/>
<path d="M146.349 653.923C143.557 654.283 140.68 653.057 137.999 654.544C137.259 654.954 136.822 655.493 136.161 656.029C135.885 656.253 135.381 656.375 135.074 656.584C134.664 656.865 134.709 657.182 134.187 657.363C131.863 658.17 129.224 656.407 127.42 655.105C125.928 654.028 124.815 654.046 123.315 653.811C122.443 653.811 122.214 653.818 121.455 653.808C120.927 653.799 120.397 653.819 119.871 653.811C118.805 653.795 118.16 654.548 117.207 654.441C116.652 654.379 115.604 653.548 115.107 653.221C114.325 652.706 114.054 652.229 113.648 651.314C112.946 649.729 111.437 647.417 111.902 645.555C112.385 643.622 112.501 641.883 112.733 639.837C112.858 638.733 113.265 637.17 113.039 636.097C112.87 635.293 113.264 634.362 113.039 633.605C112.421 631.536 112.4 628.923 113.634 626.902C114.689 625.173 116.526 624.616 117.367 622.833C118.172 621.124 117.959 618.976 118.682 617.24C119.299 615.754 120.149 615.709 121.484 615.036C122.697 614.425 122.772 614.525 124.104 614.903C125.131 615.196 125.78 615.158 126.721 615.624C127.716 616.118 130.251 614.334 131.091 615.036C133.845 614.597 132.617 616.932 134.691 617.355C135.277 617.475 135.69 617.891 136.279 618.003C136.784 618.099 137.402 617.783 137.893 617.945C138.573 618.171 139.084 619.034 139.586 619.59C140.883 621.029 141.964 622.591 142.646 624.419C143.231 625.985 143.905 627.151 144.86 628.619C145.473 629.563 146.162 630.229 146.879 630.885C147.523 631.476 147.819 632.21 147.938 633.235C148.354 636.825 148.114 639.314 150.584 642.022C152.216 643.81 153.646 646.203 152.251 648.664C151.206 650.505 148.283 653.674 146.349 653.923Z" fill="#231F20"/>
<path d="M159.099 1043.7C157.067 1042.91 154.134 1040.97 151.312 1042.21L144.488 1043.18C143.515 1043.18 142.539 1045.13 141.564 1047.08C140.185 1049.84 139.614 1050.01 139.614 1052.93C139.614 1054.88 141.24 1055.93 142.549 1057.37C143.858 1058.82 149.747 1065.32 152.569 1064.08C155.391 1062.84 157.627 1059.5 158.349 1058.84C158.927 1058.32 160.217 1053.64 160.789 1051.37C162.371 1047.31 161.717 1046.59 159.099 1043.7Z" fill="black"/>
<path d="M123.761 1039.03C123.74 1040.24 124.957 1040.74 125.96 1041.75L127.176 1042.25C127.447 1042.36 128.188 1042.78 128.991 1043.6C129.994 1044.62 129.802 1043.93 130.612 1044.26C131.423 1044.59 132.042 1044.23 132.468 1043.19C132.893 1042.14 134.81 1037.43 133.806 1036.42C132.803 1035.4 130.968 1035.26 130.563 1035.09C130.238 1034.96 127.968 1035.66 126.873 1036.03C124.826 1036.42 124.613 1036.94 123.761 1039.03Z" fill="black"/>
<path d="M144.705 1067.93C144.691 1066.59 142.915 1065.56 141.427 1064.03L139.651 1062.99C139.256 1062.76 138.169 1061.99 136.979 1060.77C135.492 1059.23 135.795 1060.07 134.61 1059.38C133.426 1058.69 132.545 1058.84 131.966 1059.83C131.388 1060.82 128.786 1065.28 130.274 1066.82C131.761 1068.35 134.419 1069.23 135.011 1069.58C135.485 1069.86 138.743 1069.99 140.313 1070.02C143.259 1070.41 143.549 1069.91 144.705 1067.93Z" fill="black"/>
<path d="M187.921 41.279C186.861 44.4584 190.04 47.6379 192.16 51.8771L192.16 56.4745C192.866 57.181 194 60.0831 195.696 63.4745C197.816 67.7138 200.076 69.3549 202.195 71.4745C204.315 73.5942 213.576 70.5942 215.696 68.4745C217.815 66.3549 221.835 53.9968 219.715 49.7575C217.596 45.5182 212.297 42.3388 211.237 41.279C210.389 40.4311 205.728 34.1811 202.195 33.4745C195.837 31.354 192.161 37.0388 187.921 41.279Z" fill="black"/>
<path d="M195.324 6.61862C195.38 7.72092 196.678 8.24932 197.787 9.24081L199.084 9.76921C199.373 9.88663 200.171 10.3198 201.059 11.113C202.168 12.1045 201.924 11.4652 202.789 11.8175C203.654 12.1698 204.275 11.8828 204.652 10.9567C205.029 10.0305 207.424 4.45369 206.314 3.4622C205.205 2.47072 202.589 3.63834 202.157 3.4622C201.811 3.32129 199.491 3.81641 198.375 4.08159C196.267 4.30281 196.079 4.76589 195.324 6.61862Z" fill="black"/>
<path d="M71.0572 1020.87C73.114 1022.98 74.11 1024.44 77.5531 1024.45L82.2519 1029.07C83.6698 1031.39 87.8586 1030.89 91.5537 1027.13C93.9673 1024.67 94.3092 1022.45 95.6949 1021.04C97.1698 1019.54 93.9431 1015.49 92.8522 1012.96C91.7613 1010.43 86.8523 999.055 83.4092 999.041C79.9661 999.027 76.648 1001.96 75.6821 1002.37C74.9094 1002.71 72.3072 1007.83 71.1026 1010.35C68.3295 1014.54 68.875 1015.81 71.0572 1020.87Z" fill="black"/>
<path d="M113.943 854.488C113.846 852.295 111.824 851.712 110.09 850.129L108.068 849.545C107.618 849.416 106.373 848.84 104.986 847.573C103.252 845.991 103.638 847.184 102.29 846.795C100.942 846.406 99.9792 847.211 99.4024 849.21C98.8257 851.208 96.2303 860.202 97.9641 861.785C99.6978 863.368 102.682 863.147 103.356 863.341C103.896 863.497 107.496 861.649 109.228 860.705C112.501 859.486 112.789 858.486 113.943 854.488Z" fill="black"/>
<path d="M114.838 832.358C114.779 831.022 115.627 830.667 114.571 829.702L113.339 829.347C113.065 829.268 112.306 828.917 111.461 828.145C110.405 827.181 110.64 827.908 109.818 827.671C108.997 827.434 108.411 827.925 108.059 829.142C107.708 830.36 107.003 833.584 108.059 834.548C109.116 835.512 108.73 836.628 110.403 836.628C111.443 836.628 112.99 836.721 114.046 836.146C116.039 835.403 114.135 834.794 114.838 832.358Z" fill="black"/>
<path d="M220.305 850.835C216.327 852.959 210.437 856.552 205.078 854.174C199.476 851.69 196.691 844.147 193.299 839.123C190.209 834.543 186.504 831.363 182.516 827.886C176.579 822.711 169.813 833.046 160.313 827.046C156.596 827.042 151.813 815.546 148.813 812.546C145.813 809.546 136.913 805.518 133.813 803.046C128.313 800.046 121.165 803.374 120.131 795.055C119.134 787.011 120.283 778.84 118.941 770.889C118.251 766.863 116.883 761.532 114.824 757.58C113.615 755.253 111.117 753.397 110.042 751.027C109.026 748.79 110.024 747.838 109.016 745.596C107.978 743.268 105.509 741.217 104.247 738.96C102.697 736.187 103.1 735.62 102.22 733.246C100.128 727.573 99.428 724.25 99.6453 718.784C99.9467 711.086 104.705 704.899 110.972 701.981C114.582 700.301 117.367 700.959 120.858 698.454C124.713 695.688 128.675 693.062 132.578 690.365C139.508 685.577 145.859 680.594 153.848 678.192C157.702 677.034 159.216 675.096 163.949 677.498C166.978 679.031 172.357 682.087 174.94 684.449C181.496 690.449 187.23 700.653 189.138 708.661C189.762 711.27 192.069 717.366 191.999 719.694C191.834 725.339 187.702 729.998 183.928 732.454C179.963 735.033 175.8 736.112 178.471 742.633C180.08 746.56 182.69 753.829 185.972 757.068C188.845 759.902 193.625 762.539 197.008 764.709C200.49 766.937 204.281 769.989 207.912 771.72C211.672 773.512 215.669 773.747 218.995 776.839C223.065 780.624 226.405 786.639 229.611 791.387C236.042 800.899 249.849 800.817 254.602 813.077C256.808 818.774 253.878 820.774 252.192 824.191C251.063 826.496 250.022 827.776 248.774 829.876C247.794 831.518 246.571 834.088 245.434 835.595C242.215 839.827 235.627 838.756 231.524 841.767C227.605 844.645 224.655 848.511 220.305 850.835Z" fill="#231F20"/>
<path d="M222.815 57.0459H237.815H249.315C257.481 96.0459 273.115 178.246 270.315 195.046C266.815 216.046 237.815 206.046 237.815 195.046C237.815 184.046 209.815 206.046 160.315 206.046H145.315L135.814 200.546L130.814 199.046L125.814 195.046L124.315 187.046C124.314 183.546 121.29 176.363 126.314 170.546C130.176 166.074 142.707 162.957 145.315 157.046C152.815 140.046 148.814 128.046 157.815 117.546C168.314 111.546 205.815 85.5459 222.815 76.0459C236.415 68.4459 228.481 60.2126 222.815 57.0459Z" fill="#231F20"/>
<path d="M180.034 1054.73C179.943 1060.13 185.366 1062.33 189.84 1066.87L195.263 1069.08C196.468 1069.57 199.773 1071.46 203.352 1075.09C207.825 1079.63 206.967 1076.57 210.582 1078.04C214.198 1079.51 216.955 1077.91 218.853 1073.25C220.752 1068.59 229.296 1047.61 224.822 1043.07C220.349 1038.53 212.168 1037.91 210.361 1037.18C208.915 1036.59 198.791 1039.72 193.91 1041.35C184.781 1043.07 183.832 1045.4 180.034 1054.73Z" fill="black"/>
<path d="M163.104 637.03C163.062 639.557 163.508 640.874 165.602 642.999L168.141 644.033C168.705 644.262 170.252 645.147 171.927 646.847C174.021 648.971 175.21 646.846 177.347 645.168C178.785 644.04 178.493 643.282 179.382 641.1C180.271 638.917 181.478 635.086 179.384 632.961C177.29 630.836 176.054 629.444 175.208 629.099C174.531 628.823 171.496 632.195 169.212 632.961C164.939 633.765 164.882 632.664 163.104 637.03Z" fill="black"/>
<path d="M185.176 631.331C185.674 631.769 186.139 632.236 186.847 632.189L187.397 631.871C187.519 631.8 187.697 631.368 188.263 631.331C188.97 631.284 188.837 631.4 189.204 631.188C189.571 630.976 189.597 630.598 189.282 630.054C188.968 629.51 188.97 628.198 188.263 628.244C187.555 628.291 185.75 627.646 185.176 628.244C184.819 628.616 184.881 629.215 184.724 629.789C184.305 630.757 184.547 630.244 185.176 631.331Z" fill="black"/>
<path d="M146.789 233.49C146.747 236.017 149.285 237.05 151.379 239.175L153.918 240.209C154.482 240.439 156.029 241.323 157.704 243.023C159.798 245.148 159.396 243.712 161.089 244.401C162.781 245.09 164.072 244.343 164.96 242.161C165.849 239.978 169.848 230.157 167.754 228.032C165.66 225.907 161.831 225.62 160.985 225.275C160.308 225 155.569 226.463 153.285 227.229C149.012 228.032 148.567 229.124 146.789 233.49Z" fill="black"/>
</svg>
